<svg width="346" height="38" viewBox="0 0 346 38" fill="none" xmlns="http://www.w3.org/2000/svg">
<path d="M71.3146 0.341526C69.1286 0.658848 64.5451 1.7871 62.4648 2.49226C61.3013 2.91535 61.5834 2.95061 65.4618 2.80958C77.5905 2.457 85.6645 5.8065 87.4627 11.9061C89.1198 17.6884 84.3247 23.6117 73.5711 29.0414C65.8496 32.9198 57.6698 35.2116 44.6244 37.1508L39.0889 37.9617L42.0858 37.997C48.7848 38.0675 60.6314 36.904 67.2952 35.5289C75.1929 33.8718 83.9369 30.3107 88.6615 26.7497C92.0462 24.2111 95.0784 20.8264 96.4535 18.041C97.5112 15.8903 97.617 15.3614 97.617 12.6465C97.617 10.1432 97.4759 9.36755 96.7355 7.95723C94.9726 4.4667 90.4596 1.61081 85.0299 0.517815C82.1035 -0.0815697 74.7699 -0.187344 71.3146 0.341526Z" fill="white"/>
<path d="M21.2835 2.06917C17.0173 2.45701 12.0812 3.37371 9.71888 4.18464C3.26668 6.44115 -0.893748 11.9414 0.163989 16.8422C1.18647 21.7431 5.20587 24.599 13.703 26.4324C16.3121 27.0318 19.0622 27.208 29.0402 27.4548C47.5153 27.9132 50.8296 28.4421 52.1341 30.9806C52.4162 31.5448 52.663 32.3557 52.663 32.814C52.663 33.4839 52.7335 33.5192 53.0156 33.0961C53.5444 32.3204 53.4387 30.0287 52.8393 28.9004C51.711 26.7144 48.6436 25.8682 35.034 24.1053C17.934 21.9194 13.3152 20.5796 11.4818 17.3006C10.5651 15.6787 10.424 12.7876 11.1997 11.3067C11.4818 10.7779 12.5043 9.61436 13.4562 8.69765C17.3698 5.03083 23.0464 3.3032 33.4474 2.56278L37.3258 2.28072L34.3289 2.03391C30.4858 1.71659 25.0913 1.75185 21.2835 2.06917Z" fill="white"/>
<path d="M120.781 5.31286C107.242 21.6373 100.966 29.253 100.649 29.8523C99.9087 31.2274 100.191 33.0608 101.284 34.1891L102.306 35.2115H113.377L124.413 35.1763L128.503 30.1697L132.628 25.163L124.201 25.0573C119.583 25.022 115.775 24.8457 115.775 24.7047C115.775 24.5284 116.233 23.9995 116.762 23.4707L117.749 22.5187H126.246H134.743L137.776 18.8871L140.773 15.2908L132.346 15.1851C127.692 15.1498 123.884 14.9735 123.884 14.8325C123.884 14.6562 124.342 14.1273 124.871 13.5985L125.858 12.6465H134.391H142.923L146.907 7.85143C149.058 5.24234 150.927 2.91532 150.962 2.73903C151.033 2.56274 145.603 2.42171 137.141 2.42171H123.214L120.781 5.31286Z" fill="white"/>
<path d="M144.792 16.2428C133.65 29.7466 133.403 30.0639 133.403 31.58C133.403 32.8493 133.615 33.3429 134.426 34.1891L135.448 35.2115H146.378H157.273L170.636 19.0987C178.005 10.249 184.069 2.88006 184.104 2.70377C184.175 2.56274 181.812 2.42171 178.815 2.42171H173.421L164.113 13.7042L154.84 24.9868H151.632C148.635 24.9868 148.494 24.9515 148.987 24.3521C150.503 22.5892 166.44 3.23264 166.687 2.8448C166.898 2.52748 165.77 2.42171 161.539 2.42171H156.145L144.792 16.2428Z" fill="white"/>
<path d="M177.97 16.0313C171.799 23.5059 166.581 30.0639 166.405 30.628C166.017 31.9678 166.334 33.1313 167.463 34.2596L168.415 35.2115H179.38L190.345 35.1763L194.47 30.1697L198.595 25.163L190.098 24.9868L181.636 24.8105L186.643 18.7109L191.685 12.6465L200.358 12.6112H209.032L212.381 8.55658C214.215 6.30008 216.083 4.00831 216.542 3.44419L217.353 2.42171H203.285H189.217L177.97 16.0313Z" fill="white"/>
<path d="M210.9 16.0665C204.695 23.6117 198.56 30.9806 197.326 32.4614L195.034 35.2115H200.534H205.999L210.266 30.0992L214.497 24.9868H217.493C219.151 24.9868 220.49 25.0925 220.49 25.2336C220.49 25.4099 218.657 27.6664 216.471 30.2754L212.452 35.0353L217.599 35.141C220.42 35.1763 222.923 35.1763 223.17 35.0705C223.382 35 228.529 28.9356 234.523 21.6373C242.773 11.6945 245.559 8.06297 245.735 7.14627C246.017 5.55966 245.312 3.90254 243.972 3.09161C242.985 2.49223 242.033 2.42171 232.584 2.42171H222.253L210.9 16.0665ZM228.988 12.9991C229.975 13.5279 229.834 14.0216 228.212 15.8902L226.766 17.5826H223.805C222.183 17.5826 220.843 17.4768 220.843 17.3711C220.843 17.1243 224.016 13.2811 224.545 12.9286C225.074 12.5407 228.212 12.6112 228.988 12.9991Z" fill="white"/>
<path d="M251.024 7.42833L246.899 12.4702L251.306 12.576C253.774 12.6112 255.749 12.7875 255.749 12.9286C255.749 13.0696 251.694 18.0762 246.758 24.0701C241.822 30.0286 237.767 35 237.767 35.0705C237.767 35.141 240.2 35.2115 243.162 35.2115H248.521L257.794 23.929L267.102 12.6465H271.051H274.999L278.666 8.16875C280.711 5.70069 282.58 3.40893 282.827 3.05635C283.285 2.45697 282.721 2.42171 269.252 2.42171H255.184L251.024 7.42833Z" fill="white"/>
<path d="M251.024 7.42833L246.899 12.4702L251.306 12.576C253.774 12.6112 255.749 12.7875 255.749 12.9286C255.749 13.0696 251.694 18.0762 246.758 24.0701C241.822 30.0286 237.767 35 237.767 35.0705C237.767 35.141 240.2 35.2115 243.162 35.2115H248.521L257.794 23.929L267.102 12.6465H271.051H274.999L278.666 8.16875C280.711 5.70069 282.58 3.40893 282.827 3.05635C283.285 2.45697 282.721 2.42171 269.252 2.42171H255.184L251.024 7.42833Z" fill="white"/>
<path d="M277.361 15.5376C271.368 22.7655 266.22 29.0767 265.867 29.5703C264.669 31.2979 265.338 33.8365 267.278 34.8237C267.806 35.0705 271.509 35.2115 278.736 35.1763H289.42L302.641 19.1339C309.904 10.3195 315.933 2.95057 315.969 2.77428C316.039 2.56273 314.03 2.4217 310.786 2.4217H305.497L296.224 13.7042L286.952 24.9515L283.849 24.9867C282.121 24.9867 280.781 24.8457 280.852 24.7047C280.922 24.5284 284.942 19.6275 289.772 13.7747C294.638 7.88667 298.657 2.95057 298.692 2.77428C298.763 2.56273 296.788 2.4217 293.509 2.4217H288.221L277.361 15.5376Z" fill="white"/>
<path d="M308.459 17.7941C301.478 26.2208 295.414 33.6249 294.955 34.1891L294.145 35.2115H299.574H305.004L309.2 30.1344L313.395 25.022H316.498C318.896 24.9868 319.53 25.0925 319.354 25.4451C319.107 25.7977 313.501 32.673 311.879 34.5769C311.386 35.1763 311.632 35.2115 316.815 35.2115H322.28L326.97 29.4998C329.543 26.3618 331.906 23.1886 332.188 22.4482C332.717 21.1436 332.611 20.1917 331.694 18.0762C331.588 17.8294 332.435 17.5473 333.915 17.3005C336.877 16.8069 338.393 15.7845 341.355 12.2939C345.551 7.32256 346.15 5.41863 344.034 3.44419L343.118 2.598L332.153 2.49223L321.152 2.42171L308.459 17.7941ZM328.168 12.858C329.085 13.2106 328.803 14.1273 327.287 15.8902L325.841 17.5826H322.88C321.258 17.5826 319.918 17.4768 319.918 17.3711C319.918 17.2653 320.764 16.1723 321.787 14.903L323.62 12.6465H325.63C326.723 12.6465 327.851 12.7523 328.168 12.858Z" fill="white"/>
<path d="M40.605 3.51468C31.1206 3.97304 24.5274 5.24232 19.9086 7.42831C13.4916 10.4957 12.3634 15.6434 17.5816 18.0762C20.5785 19.5218 23.8927 20.2622 37.326 22.5187C50.5124 24.7399 53.0157 25.3393 56.0479 27.067C58.3397 28.4068 58.9743 29.7113 58.1634 31.3684C57.8461 32.0031 57.6698 32.5672 57.7403 32.6377C57.9871 32.9198 65.6381 30.1696 68.7055 28.6888C72.0197 27.1022 76.1802 24.4931 79.4592 21.9898C81.5394 20.368 83.0907 17.9704 83.5138 15.7492C84.0427 12.858 82.1035 8.90914 79.4239 7.53408C76.6738 6.08851 65.3207 4.07881 56.7178 3.47943C50.9003 3.09159 48.7848 3.09159 40.605 3.51468Z" fill="white"/>
</svg>
