<svg width="223" height="30" viewBox="0 0 223 30" fill="none" xmlns="http://www.w3.org/2000/svg">
<path d="M78.0198 4.09655C69.2741 16.6837 65.2201 22.5559 65.0152 23.018C64.5369 24.0783 64.7191 25.492 65.4251 26.3619L66.0856 27.1503H73.237L80.3656 27.1231L83.0076 23.2627L85.6723 19.4023L80.229 19.3207C77.2454 19.2936 74.7857 19.1576 74.7857 19.0489C74.7857 18.913 75.0818 18.5052 75.4234 18.0974L76.0611 17.3633H81.5499H87.0388L88.9974 14.5632L90.9333 11.7902L85.4901 11.7086C82.4837 11.6815 80.024 11.5455 80.024 11.4368C80.024 11.3009 80.3201 10.8931 80.6617 10.4853L81.2994 9.75125H86.811H92.3226L94.8962 6.05394C96.2855 4.04218 97.4926 2.24789 97.5153 2.11197C97.5609 1.97603 94.0535 1.86729 88.5875 1.86729H79.5913L78.0198 4.09655Z" fill="#004923"/>
<path d="M93.5297 12.5242C86.3328 22.9365 86.1733 23.1812 86.1733 24.3502C86.1733 25.3289 86.31 25.7095 86.8338 26.3619L87.4943 27.1503H94.5546H101.592L110.224 14.7263C114.984 7.9026 118.901 2.22071 118.924 2.08478C118.97 1.97603 117.444 1.86729 115.508 1.86729H112.023L106.011 10.5668L100.021 19.2664H97.9481C96.0122 19.2664 95.9211 19.2392 96.24 18.777C97.2193 17.4177 107.514 2.49257 107.673 2.19352C107.81 1.94885 107.081 1.86729 104.348 1.86729H100.863L93.5297 12.5242Z" fill="#004923"/>
<path d="M114.961 12.3611C110.975 18.1246 107.605 23.1812 107.491 23.6161C107.24 24.6492 107.445 25.5464 108.174 26.4163L108.789 27.1503H115.872L122.955 27.1231L125.62 23.2627L128.285 19.4023L122.796 19.2664L117.33 19.1304L120.564 14.4273L123.821 9.75125L129.423 9.72406H135.026L137.19 6.59767C138.374 4.85776 139.581 3.09066 139.877 2.65569L140.401 1.86729H131.314H122.226L114.961 12.3611Z" fill="#004923"/>
<path d="M136.233 12.3883C132.225 18.2061 128.262 23.888 127.465 25.0298L125.984 27.1503H129.537H133.067L135.823 23.2084L138.556 19.2664H140.492C141.563 19.2664 142.428 19.3479 142.428 19.4567C142.428 19.5926 141.244 21.3325 139.832 23.3443L137.235 27.0144L140.56 27.096C142.383 27.1231 144 27.1231 144.159 27.0416C144.296 26.9872 147.621 22.3112 151.493 16.6837C156.822 9.01723 158.621 6.21706 158.735 5.51022C158.917 4.28685 158.462 3.0091 157.596 2.38383C156.959 1.92166 156.344 1.86729 150.24 1.86729H143.567L136.233 12.3883ZM147.917 10.0231C148.555 10.4309 148.463 10.8115 147.416 12.2524L146.482 13.5573H144.569C143.521 13.5573 142.656 13.4757 142.656 13.3942C142.656 13.2039 144.706 10.2406 145.047 9.96874C145.389 9.66969 147.416 9.72406 147.917 10.0231Z" fill="#004923"/>
<path d="M162.151 5.72771L159.487 9.61532L162.334 9.69688C163.928 9.72406 165.203 9.85999 165.203 9.96874C165.203 10.0775 162.584 13.9379 159.396 18.5595C156.207 23.154 153.588 26.9872 153.588 27.0416C153.588 27.096 155.159 27.1503 157.072 27.1503H160.534L166.524 18.4508L172.537 9.75125H175.088H177.638L180.007 6.29862C181.328 4.39559 182.535 2.6285 182.695 2.35664C182.991 1.89448 182.626 1.86729 173.926 1.86729H164.839L162.151 5.72771Z" fill="#004923"/>
<path d="M179.164 11.9805C175.293 17.5537 171.967 22.42 171.74 22.8006C170.965 24.1327 171.398 26.0901 172.651 26.8513C172.992 27.0416 175.384 27.1504 180.053 27.1232H186.954L195.494 14.7535C200.186 7.95701 204.08 2.27512 204.103 2.13919C204.149 1.97608 202.851 1.86733 200.755 1.86733H197.339L191.349 10.5669L185.359 19.2392L183.355 19.2664C182.239 19.2664 181.374 19.1577 181.419 19.0489C181.465 18.913 184.061 15.1341 187.181 10.6212C190.324 6.08117 192.921 2.27512 192.943 2.13919C192.989 1.97608 191.714 1.86733 189.595 1.86733H186.179L179.164 11.9805Z" fill="#004923"/>
<path d="M199.252 13.7204C194.743 20.2179 190.825 25.927 190.529 26.3619L190.005 27.1503H193.513H197.02L199.73 23.2355L202.441 19.2936H204.445C205.994 19.2664 206.403 19.3479 206.29 19.6198C206.13 19.8917 202.509 25.1929 201.461 26.661C201.142 27.1231 201.302 27.1503 204.65 27.1503H208.18L211.209 22.7462C212.872 20.3266 214.398 17.8799 214.58 17.309C214.921 16.3031 214.853 15.5691 214.261 13.9379C214.193 13.7476 214.739 13.5301 215.696 13.3398C217.609 12.9592 218.588 12.1708 220.501 9.47939C223.212 5.64615 223.599 4.17811 222.232 2.65569L221.64 2.00322L214.557 1.92166L207.451 1.86729L199.252 13.7204ZM211.983 9.91437C212.576 10.1862 212.393 10.8931 211.414 12.2524L210.48 13.5573H208.567C207.519 13.5573 206.654 13.4757 206.654 13.3942C206.654 13.3126 207.201 12.4699 207.861 11.4912L209.045 9.75125H210.344C211.05 9.75125 211.778 9.83281 211.983 9.91437Z" fill="#004923"/>
<path fill-rule="evenodd" clip-rule="evenodd" d="M46.0663 0.263339C44.6542 0.508013 41.6934 1.37797 40.3497 1.92169C39.5981 2.24792 39.7803 2.27511 42.2856 2.16636C50.1203 1.8945 55.3358 4.47718 56.4973 9.18037C57.5677 13.6389 54.4703 18.2061 47.5239 22.3928C42.5361 25.3833 37.2523 27.1504 28.8255 28.6456L25.2498 29.2709L27.1856 29.2981C31.5129 29.3524 39.1654 28.4553 43.4699 27.395C48.5715 26.1173 54.2198 23.3715 57.2717 20.6257C59.4581 18.6683 61.4167 16.0584 62.305 13.9107C62.9882 12.2524 63.0565 11.8446 63.0565 9.75128C63.0565 7.82106 62.9655 7.22297 62.4872 6.13553C61.3484 3.44411 58.4332 1.24204 54.9258 0.399269C53.0355 -0.062894 48.2982 -0.144452 46.0663 0.263339ZM13.7483 1.5954C10.9925 1.89445 7.80394 2.60129 6.278 3.22657C2.11015 4.96648 -0.577325 9.2075 0.10593 12.9864C0.76641 16.7652 3.36278 18.9673 8.8516 20.381C10.537 20.8431 12.3134 20.9791 18.7588 21.1694C30.693 21.5228 32.8339 21.9306 33.6765 23.888C33.8587 24.323 34.0182 24.9482 34.0182 25.3017C34.0182 25.8182 34.0637 25.8454 34.2459 25.5191C34.5875 24.921 34.5192 23.154 34.132 22.284C33.4032 20.5985 31.4218 19.946 22.6306 18.5867C11.5846 16.9012 8.60107 15.8681 7.41676 13.3398C6.82461 12.0892 6.73351 9.85997 7.23456 8.71815C7.41676 8.31036 8.07724 7.41322 8.69217 6.70638C11.2202 3.87903 14.887 2.54692 21.6057 1.97601L24.111 1.75852L22.1751 1.56822C19.6926 1.32354 16.208 1.35073 13.7483 1.5954ZM12.8599 5.72771C15.8434 4.04217 20.1024 3.06347 26.2289 2.71006C31.5128 2.38382 32.8793 2.38382 36.6372 2.68287C42.1943 3.14503 49.5279 4.69464 51.3044 5.80927C53.0353 6.86952 54.2879 9.91436 53.9463 12.1436C53.673 13.8563 52.6709 15.705 51.3272 16.9555C49.2091 18.8858 46.5216 20.8975 44.3807 22.1209C42.3993 23.2627 37.4571 25.3832 37.2977 25.1657C37.2521 25.1114 37.366 24.6764 37.571 24.187C38.0948 22.9093 37.6848 21.9034 36.2045 20.8703C34.2458 19.5382 32.6287 19.0761 24.1108 17.3633C15.4335 15.6234 13.2926 15.0525 11.3567 13.9379C7.98601 12.0621 8.71482 8.09289 12.8599 5.72771Z" fill="#DA2128"/>
</svg>
