<svg width="64" height="30" viewBox="0 0 64 30" fill="none" xmlns="http://www.w3.org/2000/svg">
<path fill-rule="evenodd" clip-rule="evenodd" d="M46.0663 0.263339C44.6542 0.508013 41.6934 1.37797 40.3497 1.92169C39.5981 2.24792 39.7803 2.27511 42.2856 2.16636C50.1203 1.8945 55.3358 4.47718 56.4973 9.18037C57.5677 13.6389 54.4703 18.2061 47.5239 22.3928C42.5361 25.3833 37.2523 27.1504 28.8255 28.6456L25.2498 29.2709L27.1856 29.2981C31.5129 29.3524 39.1654 28.4553 43.4699 27.395C48.5715 26.1173 54.2198 23.3715 57.2717 20.6257C59.4581 18.6683 61.4167 16.0584 62.305 13.9107C62.9882 12.2524 63.0565 11.8446 63.0565 9.75128C63.0565 7.82106 62.9655 7.22297 62.4872 6.13553C61.3484 3.44411 58.4332 1.24204 54.9258 0.399269C53.0355 -0.062894 48.2982 -0.144452 46.0663 0.263339ZM13.7483 1.5954C10.9925 1.89445 7.80394 2.60129 6.278 3.22657C2.11015 4.96648 -0.577325 9.2075 0.10593 12.9864C0.76641 16.7652 3.36278 18.9673 8.8516 20.381C10.537 20.8431 12.3134 20.9791 18.7588 21.1694C30.693 21.5228 32.8339 21.9306 33.6765 23.888C33.8587 24.323 34.0182 24.9482 34.0182 25.3017C34.0182 25.8182 34.0637 25.8454 34.2459 25.5191C34.5875 24.921 34.5192 23.154 34.132 22.284C33.4032 20.5985 31.4218 19.946 22.6306 18.5867C11.5846 16.9012 8.60107 15.8681 7.41676 13.3398C6.82461 12.0892 6.73351 9.85997 7.23456 8.71815C7.41676 8.31036 8.07724 7.41322 8.69217 6.70638C11.2202 3.87903 14.887 2.54692 21.6057 1.97601L24.111 1.75852L22.1751 1.56822C19.6926 1.32354 16.208 1.35073 13.7483 1.5954ZM12.8599 5.72771C15.8434 4.04217 20.1024 3.06347 26.2289 2.71006C31.5128 2.38382 32.8793 2.38382 36.6372 2.68287C42.1943 3.14503 49.5279 4.69464 51.3044 5.80927C53.0353 6.86952 54.2879 9.91436 53.9463 12.1436C53.673 13.8563 52.6709 15.705 51.3272 16.9555C49.2091 18.8858 46.5216 20.8975 44.3807 22.1209C42.3993 23.2627 37.4571 25.3832 37.2977 25.1657C37.2521 25.1114 37.366 24.6764 37.571 24.187C38.0948 22.9093 37.6848 21.9034 36.2045 20.8703C34.2458 19.5382 32.6287 19.0761 24.1108 17.3633C15.4335 15.6234 13.2926 15.0525 11.3567 13.9379C7.98601 12.0621 8.71482 8.09289 12.8599 5.72771Z" fill="#DA2128"/>
</svg>
